<?xml version="1.0" encoding="UTF-8"?>
<svg id="Layer_1" xmlns="http://www.w3.org/2000/svg" viewBox="0 0 250 250">
  <defs>
    <style>
      .cls-1 {
        fill: #fff;
      }
    </style>
  </defs>
  <path class="cls-1" d="M4.16,133c0-5.71,0-11.42,0-17.13,2.12-4.67,6.27-4.89,10.46-4.49,4.28.41,6.13-.67,7.01-5.5C29.62,62.15,62.22,29.54,105.98,21.51c4.83-.89,5.9-2.71,5.49-6.99-.4-4.19-.17-8.34,4.49-10.46,5.71,0,11.42,0,17.13,0,4.67,2.12,4.89,6.27,4.48,10.46-.42,4.29.69,6.11,5.5,6.99,44.25,8.13,76.98,41.47,84.66,85.88.5,2.9,1.41,4.28,4.45,3.96,1.72-.18,3.47-.09,5.21-.02,5.25.21,7.51,2.42,7.61,7.55.07,3.63.06,7.26,0,10.89-.09,5.24-2.26,7.46-7.43,7.75q-8.79.49-10.8,9.34c-9.59,42.22-42.34,73.44-84.94,80.7-3.49.59-4.61,1.89-4.25,5.17.19,1.72.13,3.48,0,5.2-.33,4.66-2.57,6.85-7.23,6.97-3.79.1-7.58.08-11.37,0-5.13-.1-7.33-2.35-7.58-7.6q-.41-8.66-9.03-10.57c-41.95-9.28-73.51-41.96-80.86-84.22-.79-4.51-2.58-5.33-6.43-5.05-4.3.31-8.7.42-10.94-4.49ZM137.62,57.2c0,2.21-.15,4.43.04,6.63.27,3.15-.82,4.34-4.04,3.67-6.1-1.28-12.23-1.21-18.34,0-2.83.56-4.06-.22-3.92-3.34.22-4.73,0-9.47.08-14.21.04-2.39-.42-3.27-3.25-2.74-29.18,5.46-55.14,31.38-60.85,60.77-.51,2.63-.04,3.43,2.57,3.38,4.73-.1,9.48.1,14.21-.07,2.9-.11,4.09.76,3.48,3.78-1.27,6.26-1.25,12.55,0,18.81.63,3.13-.77,3.81-3.56,3.71-4.42-.16-8.84.06-13.26-.08-2.95-.09-4.25.27-3.3,3.92,8.31,31.95,28.4,51.9,60.35,60.08,2.84.73,3.7.18,3.62-2.7-.13-4.73.07-9.48-.08-14.21-.08-2.68.73-3.82,3.54-3.26,6.42,1.27,12.87,1.25,19.28,0,2.91-.57,3.53.76,3.46,3.34-.13,4.73.01,9.47-.06,14.21-.03,2.34.33,3.3,3.22,2.77,29.03-5.41,55.2-31.54,60.86-60.78.52-2.66,0-3.41-2.58-3.36-4.89.1-9.79-.05-14.68.06-2.49.06-3.49-.77-3.01-3.32,1.21-6.42,1.31-12.86.03-19.28-.52-2.61.25-3.77,3.11-3.67,4.73.17,9.47-.03,14.21.07,2.62.06,3.64-.41,2.87-3.49-7.42-29.91-25.78-49.61-55-59.09-8.92-2.89-9.03-2.56-9.03,7,0,.47,0,.95,0,1.42Z"/>
</svg>